<svg xmlns="http://www.w3.org/2000/svg" version="1.1" xmlns:xlink="http://www.w3.org/1999/xlink" xmlns:svgjs="http://svgjs.dev/svgjs" width="1000" height="366" viewBox="0 0 1000 366"><g transform="matrix(1,0,0,1,-0.6060606060606801,-0.3432230748472307)"><svg viewBox="0 0 396 145" data-background-color="#ffffff" preserveAspectRatio="xMidYMid meet" height="366" width="1000" xmlns="http://www.w3.org/2000/svg" xmlns:xlink="http://www.w3.org/1999/xlink"><g id="tight-bounds" transform="matrix(1,0,0,1,0.24000000000003752,0.13597754054868005)"><svg viewBox="0 0 395.5199999999999 144.72804610466216" height="144.72804610466216" width="395.5199999999999"><g><svg viewBox="0 0 397.4975999999999 145.45168633518546" height="144.72804610466216" width="395.5199999999999"><g><rect width="397.4975999999999" height="2.6345978585018184" x="0" y="81.75424786577454" fill="#cdd8e3" opacity="1" stroke-width="0" stroke="transparent" fill-opacity="1" class="rect-o-0" data-fill-palette-color="secondary" rx="1%" id="o-0" data-palette-color="#cdd8e3"></rect></g><g transform="matrix(1,0,0,1,0.9887999999999693,91.28569875700364)"><svg viewBox="0 0 395.52 54.16598757818181" height="54.16598757818181" width="395.52"><g><svg viewBox="0 0 395.52 54.16598757818181" height="54.16598757818181" width="395.52"><g><svg viewBox="0 0 395.52 29.21454545454545" height="29.21454545454545" width="395.52"><g transform="matrix(1,0,0,1,0,0)"><svg width="395.52" viewBox="0.33000001311302185 -35.70000076293945 492.75 36.400001525878906" height="29.21454545454545" data-palette-color="#cdd8e3"><path d="M15.68 0L10.2 0 0.33-35 6.03-35 13.25-7.85 21.5-34.6 26.25-34.6 34.63-8.13 41.73-35 47.43-35 37.38 0 32.08 0 23.85-26.13 15.68 0ZM57.02 0L51.57 0 51.57-35 57.02-35 57.02 0ZM85.7 0L64.9 0 64.9-35 70.35-35 70.35-4.9 85.7-4.9 85.7 0ZM110.72 0L89.92 0 89.92-35 95.37-35 95.37-4.9 110.72-4.9 110.72 0ZM120.39 0L114.94 0 114.94-35 120.39-35 120.39 0ZM147.26-13.83L147.26-8.95 132.41-8.95 132.41-13.83 147.26-13.83ZM149.56 0L139.09-29.68 140.59-29.68 130.11 0 124.61 0 137.11-35 142.56-35 155.06 0 149.56 0ZM163.36 0L157.66 0 162.41-35 166.99-35 175.89-18.25 184.74-35 189.34-35 194.06 0 188.36 0 184.91-27.6 186.36-27.33 175.94-7.9 165.36-27.3 166.81-27.58 163.36 0ZM221.63 0.7L221.63 0.7Q219.48 0.7 217.27 0.34 215.06-0.03 213.18-0.58 211.31-1.13 210.11-1.68L210.11-1.68 210.81-7.48Q212.33-6.73 214.24-6.03 216.16-5.33 218.28-4.85 220.41-4.38 222.58-4.38L222.58-4.38Q225.61-4.38 227.41-5.51 229.21-6.65 229.21-9.05L229.21-9.05Q229.21-10.85 228.26-11.99 227.31-13.13 225.39-13.96 223.48-14.8 220.53-15.73L220.53-15.73Q217.71-16.63 215.37-17.82 213.03-19.03 211.63-20.96 210.23-22.9 210.23-26.03L210.23-26.03Q210.23-28.85 211.67-31.04 213.11-33.23 215.91-34.46 218.71-35.7 222.83-35.7L222.83-35.7Q226.18-35.7 229.07-34.96 231.96-34.23 233.91-33.38L233.91-33.38 233.36-27.68Q230.46-29.23 227.87-29.93 225.28-30.63 222.56-30.63L222.56-30.63Q219.61-30.63 217.79-29.58 215.98-28.53 215.98-26.25L215.98-26.25Q215.98-24.6 216.86-23.59 217.73-22.58 219.43-21.85 221.13-21.13 223.58-20.35L223.58-20.35Q227.31-19.23 229.91-17.8 232.51-16.38 233.87-14.33 235.23-12.28 235.23-9.25L235.23-9.25Q235.23-7.3 234.54-5.53 233.86-3.75 232.28-2.34 230.71-0.93 228.09-0.11 225.48 0.7 221.63 0.7ZM246.13 0L240.68 0 240.68-35 246.13-35 246.13 0ZM274.8 0L254 0 254-35 259.45-35 259.45-4.9 274.8-4.9 274.8 0ZM292.82 0L279.02 0 279.02-35 291-35Q295.85-35 298.44-32.86 301.02-30.73 301.02-26.5L301.02-26.5Q301.02-23.5 299.7-21.35 298.37-19.2 295.72-18.4L295.72-18.4 296.15-19.38Q300.02-18.65 302.05-16.3 304.07-13.95 304.07-9.98L304.07-9.98Q304.07-5.33 301.07-2.66 298.07 0 292.82 0L292.82 0ZM284.47-15.9L284.47-4.9 292.2-4.9Q294.97-4.9 296.64-6.19 298.3-7.48 298.3-10.35L298.3-10.35Q298.3-13.48 296.59-14.69 294.87-15.9 292.2-15.9L292.2-15.9 284.47-15.9ZM284.47-30.13L284.47-20.8 290.25-20.8Q292.7-20.8 294.11-21.79 295.52-22.78 295.52-25.45L295.52-25.45Q295.52-28.15 294.11-29.14 292.7-30.13 290.25-30.13L290.25-30.13 284.47-30.13ZM331.77 0L309.5 0 309.5-35 331.3-35 331.3-29.9 315.02-29.9 315.02-20.83 327.85-20.83 327.85-15.73 315.02-15.73 315.02-5.1 331.77-5.1 331.77 0ZM343.09 0L337.49 0 337.49-35 349.47-35Q353.12-35 355.83-33.86 358.54-32.73 360.04-30.38 361.54-28.03 361.54-24.38L361.54-24.38Q361.54-20.68 359.96-18.31 358.37-15.95 355.52-14.58L355.52-14.58 363.39 0 357.02 0 350.07-13.38Q349.99-13.38 349.94-13.38 349.89-13.38 349.82-13.38L349.82-13.38 343.09-13.38 343.09 0ZM343.09-30.28L343.09-18.1 348.72-18.1Q352.44-18.1 354.16-19.78 355.87-21.45 355.87-24.23L355.87-24.23Q355.87-27.1 354.17-28.69 352.47-30.28 348.82-30.28L348.82-30.28 343.09-30.28ZM378.22 0.7L378.22 0.7Q376.07 0.7 373.85 0.34 371.64-0.03 369.77-0.58 367.89-1.13 366.69-1.68L366.69-1.68 367.39-7.48Q368.92-6.73 370.83-6.03 372.74-5.33 374.87-4.85 376.99-4.38 379.17-4.38L379.17-4.38Q382.19-4.38 383.99-5.51 385.79-6.65 385.79-9.05L385.79-9.05Q385.79-10.85 384.84-11.99 383.89-13.13 381.98-13.96 380.07-14.8 377.12-15.73L377.12-15.73Q374.29-16.63 371.95-17.82 369.62-19.03 368.22-20.96 366.82-22.9 366.82-26.03L366.82-26.03Q366.82-28.85 368.25-31.04 369.69-33.23 372.49-34.46 375.29-35.7 379.42-35.7L379.42-35.7Q382.77-35.7 385.65-34.96 388.54-34.23 390.49-33.38L390.49-33.38 389.94-27.68Q387.04-29.23 384.45-29.93 381.87-30.63 379.14-30.63L379.14-30.63Q376.19-30.63 374.38-29.58 372.57-28.53 372.57-26.25L372.57-26.25Q372.57-24.6 373.44-23.59 374.32-22.58 376.02-21.85 377.72-21.13 380.17-20.35L380.17-20.35Q383.89-19.23 386.49-17.8 389.09-16.38 390.45-14.33 391.82-12.28 391.82-9.25L391.82-9.25Q391.82-7.3 391.13-5.53 390.44-3.75 388.87-2.34 387.29-0.93 384.68-0.11 382.07 0.7 378.22 0.7ZM409.61 0L404.16 0 404.16-29.9 394.09-29.9 394.09-35 419.69-35 419.69-29.9 409.61-29.9 409.61 0ZM446.64 0L424.36 0 424.36-35 446.16-35 446.16-29.9 429.89-29.9 429.89-20.83 442.71-20.83 442.71-15.73 429.89-15.73 429.89-5.1 446.64-5.1 446.64 0ZM457.81 0L452.36 0 452.36-35 457.81-35 457.81 0ZM471.13 0L465.68 0 465.68-35 471.33-35 487.61-10.33 487.61-35 493.08-35 493.08 0 488.53 0 471.13-26.1 471.13 0Z" opacity="1" transform="matrix(1,0,0,1,0,0)" fill="#cdd8e3" class="undefined-text-0" data-fill-palette-color="primary" id="text-0"></path></svg></g></svg></g><g transform="matrix(1,0,0,1,0,36.11139848727272)"><svg viewBox="0 0 395.52 18.05458909090909" height="18.05458909090909" width="395.52"><g transform="matrix(1,0,0,1,0,0)"><svg width="395.52" viewBox="3.25 -38.9900016784668 876.0599975585938 39.9900016784668" height="18.05458909090909" data-palette-color="#cdd8e3"><path d="M11.4-32.1L11.4-32.1 11.4-4.39Q11.4-2.42 12.21-1.51 13.01-0.61 15.26-0.2L15.26-0.2 15.04 0.39Q12.26 0 10.64 0L10.64 0Q9.2 0 7.3 0.39L7.3 0.39 7.15 0.15Q7.64-0.56 7.64-2.44L7.64-2.44 7.64-28.1Q7.64-31.57 6.85-32.65 6.05-33.74 3.34-33.74L3.34-33.74 3.25-34.45Q10.03-35.45 14.16-35.45L14.16-35.45Q16.99-35.45 19.18-35.03 21.36-34.62 23.12-33.65 24.88-32.69 25.82-30.98 26.76-29.27 26.76-26.86L26.76-26.86Q26.76-24.19 25.04-22.01 23.32-19.82 20.76-18.69 18.21-17.55 15.55-17.55L15.55-17.55Q14.5-17.55 13.99-17.65L13.99-17.65 13.99-18.51Q15.84-18.51 17.42-18.99 18.99-19.48 20.23-20.46 21.46-21.44 22.16-23.03 22.85-24.63 22.85-26.71L22.85-26.71Q22.85-30.05 21.17-32.01 19.48-33.96 15.89-33.96L15.89-33.96Q13.26-33.96 11.25-33.64L11.25-33.64Q11.4-32.91 11.4-32.1ZM63.81-11.89L63.81-11.89Q63.81-14.48 64.66-16.91 65.52-19.34 67.1-21.23 68.69-23.12 70.95-24.26 73.21-25.39 76.01-25.39L76.01-25.39Q77.77-25.39 79.33-24.79 80.9-24.19 82.06-22.94 83.22-21.68 83.89-19.71 84.56-17.75 84.56-15.04L84.56-15.04 83.61-14.16 67.66-14.16Q67.61-13.75 67.61-13.35 67.61-12.96 67.61-12.57L67.61-12.57Q67.61-9.91 68.24-7.74 68.86-5.57 69.92-4.02 70.98-2.47 72.42-1.61 73.86-0.76 75.48-0.76L75.48-0.76Q76.5-0.76 77.56-0.92 78.63-1.07 79.64-1.42 80.65-1.76 81.6-2.29 82.56-2.83 83.36-3.59L83.36-3.59 84.36-2.54Q82.43-0.63 80.16 0.18 77.89 1 74.91 1L74.91 1Q72.57 1 70.53 0.1 68.49-0.81 67-2.49 65.52-4.17 64.66-6.56 63.81-8.94 63.81-11.89ZM75.48-23.71L75.48-23.71Q71.69-23.71 69.93-21.74 68.18-19.78 67.81-16.09L67.81-16.09 81.41-16.09Q81.21-20.09 79.61-21.9 78.02-23.71 75.48-23.71ZM125.02-2.44L125.02-18.09Q125.02-19.73 124.87-20.83 124.71-21.92 124.3-22.58 123.9-23.24 123.19-23.51 122.49-23.78 120.73-23.75L120.73-23.75 120.63-24.19Q124.61-25.39 128.03-25.39L128.03-25.39Q128.54-24.1 128.54-22.61L128.54-22.61 128.54-19.6 128.64-19.51Q129.66-20.92 130.6-22.02 131.54-23.12 132.52-23.85 133.5-24.58 134.57-24.96 135.64-25.34 136.96-25.34L136.96-25.34Q137.79-25.34 138.79-25.2L138.79-25.2 137.38-19.24 136.47-19.51Q136.47-19.87 136.43-20.51 136.38-21.14 136.29-21.77 136.21-22.39 136.07-22.84 135.94-23.29 135.77-23.29L135.77-23.29Q135.06-23.29 134.34-22.99 133.62-22.68 132.76-22 131.91-21.31 130.88-20.21 129.86-19.12 128.54-17.55L128.54-17.55 128.54-3.34Q128.54-2.56 128.66-2.09 128.78-1.61 129.17-1.29 129.57-0.98 130.27-0.73 130.98-0.49 132.13-0.2L132.13-0.2 131.93 0.39Q130.52 0.2 129.53 0.1 128.54 0 127.93 0L127.93 0Q126.54 0 124.68 0.39L124.68 0.39 124.54 0.15Q125.02-0.56 125.02-2.44L125.02-2.44ZM191.42-5.69L191.42-5.69Q191.42-3.93 190.71-2.66 190-1.39 188.82-0.57 187.63 0.24 186.06 0.62 184.48 1 182.75 1L182.75 1Q178.55 1 174.87-0.76L174.87-0.76Q175.33-2.37 175.79-3.75 176.26-5.13 176.75-6.3L176.75-6.3 177.45-6.05Q177.23-4.98 177.23-3.99 177.23-3 177.31-2.2L177.31-2.2Q178.06-1.81 178.72-1.53 179.38-1.25 180.04-1.06 180.7-0.88 181.46-0.79 182.21-0.71 183.22-0.71L183.22-0.71Q184.7-0.71 185.68-0.9 186.66-1.1 187.21-1.57 187.76-2.05 187.98-2.84 188.2-3.64 188.2-4.81L188.2-4.81Q188.2-5.71 187.89-6.51 187.59-7.3 186.84-8.08 186.1-8.86 184.86-9.7 183.63-10.55 181.8-11.55L181.8-11.55Q178.85-13.31 177.33-15.05 175.82-16.8 175.82-18.8L175.82-18.8Q175.82-20.39 176.48-21.62 177.14-22.85 178.27-23.69 179.41-24.54 180.92-24.96 182.43-25.39 184.12-25.39L184.12-25.39Q184.97-25.39 185.91-25.27 186.85-25.15 187.73-24.91 188.61-24.68 189.38-24.35 190.15-24.02 190.71-23.61L190.71-23.61Q189.93-20.41 188.81-17.99L188.81-17.99 188.1-18.26Q188.15-18.97 188.17-20.01 188.2-21.04 188.2-22.46L188.2-22.46Q186.61-23.71 183.8-23.71L183.8-23.71Q182.41-23.71 181.45-23.54 180.48-23.36 179.89-22.95 179.31-22.53 179.05-21.81 178.8-21.09 178.8-20L178.8-20Q178.8-19.19 179.02-18.49 179.24-17.8 179.8-17.13 180.36-16.46 181.32-15.76 182.29-15.06 183.8-14.26L183.8-14.26Q186.17-12.96 187.65-11.99 189.12-11.01 189.97-10.07 190.81-9.13 191.11-8.11 191.42-7.08 191.42-5.69ZM241.11-25.39L241.11-25.39Q246.73-25.39 249.93-21.95 253.12-18.51 253.12-12.35L253.12-12.35Q253.12-8.79 251.49-5.71 249.85-2.64 247.05-0.82 244.24 1 240.97 1L240.97 1Q235.33 1 232.14-2.4 228.96-5.81 228.96-12.06L228.96-12.06Q228.96-15.77 230.59-18.84 232.23-21.9 235.02-23.65 237.82-25.39 241.11-25.39ZM240.62-23.71L240.62-23.71Q238.7-23.71 237.28-23.14 235.86-22.58 235.01-21.63 234.16-20.68 233.64-19.21 233.13-17.75 232.95-16.21 232.76-14.67 232.76-12.65L232.76-12.65Q232.76-9.42 233.53-7.02 234.3-4.61 235.6-3.28 236.89-1.95 238.35-1.33 239.82-0.71 241.46-0.71L241.46-0.71Q243.36-0.71 244.79-1.31 246.22-1.9 247.07-2.87 247.92-3.83 248.44-5.31 248.95-6.79 249.13-8.3 249.32-9.81 249.32-11.74L249.32-11.74Q249.32-14.45 248.8-16.58 248.29-18.7 247.45-20.02 246.61-21.34 245.45-22.19 244.29-23.05 243.12-23.38 241.94-23.71 240.62-23.71ZM293.57-2.44L293.57-18.09Q293.57-19.73 293.41-20.83 293.25-21.92 292.85-22.58 292.44-23.24 291.74-23.51 291.03-23.78 290.23-23.78 289.44-23.78 289.27-23.75L289.27-23.75 289.17-24.19Q293.15-25.39 296.57-25.39L296.57-25.39Q297.08-24.1 297.08-22.61L297.08-22.61 297.08-21.9Q298.5-22.85 299.69-23.56 300.89-24.27 302.05-24.76 303.21-25.24 304.43-25.49 305.65-25.73 307.12-25.73L307.12-25.73Q308.44-25.73 309.74-25.39 311.05-25.05 312.08-24.17 313.12-23.29 313.77-21.78 314.42-20.26 314.42-17.94L314.42-17.94 314.42-2.76Q314.42-2.17 314.7-1.78 314.98-1.39 315.43-1.12 315.88-0.85 316.47-0.67 317.05-0.49 317.69-0.29L317.69-0.29 317.47 0.29Q316.1 0 313.83 0L313.83 0Q312.44 0 310.58 0.39L310.58 0.39 310.44 0.15Q310.93-0.56 310.93-2.44L310.93-2.44 310.93-17.04Q310.93-19.09 310.53-20.4 310.14-21.7 309.47-22.45 308.8-23.19 307.91-23.49 307.02-23.78 306.02-23.78L306.02-23.78Q304.8-23.78 303.74-23.56 302.67-23.34 301.61-22.89 300.55-22.44 299.45-21.77 298.35-21.09 297.08-20.19L297.08-20.19 297.08-3.34Q297.08-2.56 297.2-2.09 297.33-1.61 297.72-1.29 298.11-0.98 298.82-0.73 299.52-0.49 300.67-0.2L300.67-0.2 300.48 0.39Q299.06 0.2 298.07 0.1 297.08 0 296.47 0L296.47 0Q295.08 0 293.23 0.39L293.23 0.39 293.08 0.15Q293.57-0.56 293.57-2.44L293.57-2.44ZM373.24-17.65L373.24-2.76Q373.24-2.34 373.43-1.99 373.61-1.64 373.86-1.4 374.12-1.17 374.61-0.95 375.1-0.73 375.46-0.61 375.83-0.49 376.49-0.29L376.49-0.29 376.29 0.29Q374.73 0 373.19 0L373.19 0Q371.26 0 369.38 0.39L369.38 0.39 369.24 0.15Q369.75-0.56 369.75-2.44L369.75-2.44 369.75-4.05Q368.53-1.78 365.95-0.39 363.38 1 360.74 1L360.74 1Q357.93 1 356.21-0.45 354.49-1.9 354.49-4.76L354.49-4.76Q354.49-6.62 355.26-8.07 356.03-9.52 357.31-10.53 358.59-11.55 360.61-12.33 362.62-13.11 364.76-13.6 366.89-14.09 369.75-14.5L369.75-14.5 369.75-16.75Q369.75-23.46 364.45-23.46L364.45-23.46Q362.74-23.46 360.27-22.62 357.79-21.78 356.1-20.41L356.1-20.41 355.1-21.56Q357.23-23.24 360.14-24.34 363.06-25.44 365.6-25.44L365.6-25.44Q366.72-25.44 367.74-25.23 368.75-25.02 369.79-24.48 370.83-23.93 371.57-23.08 372.31-22.24 372.78-20.84 373.24-19.43 373.24-17.65L373.24-17.65ZM361.89-0.85L361.89-0.85Q364.01-0.85 366.33-2.26 368.65-3.66 369.75-5.76L369.75-5.76 369.75-13.21Q363.5-12.3 360.83-10.44 358.15-8.57 358.15-5L358.15-5Q358.15-2.83 359.08-1.84 360.01-0.85 361.89-0.85ZM420.2-36.21L420.2-4.39Q420.2-2.47 421.11-1.54 422.01-0.61 424.3-0.2L424.3-0.2 424.11 0.39Q421.3 0 419.78 0 418.25 0 416.35 0.39L416.35 0.39 416.2 0.15Q416.69-0.56 416.69-2.44L416.69-2.44 416.69-31.69Q416.69-35.16 415.87-36.34 415.05-37.52 412.39-37.35L412.39-37.35 412.29-37.79Q416.32-38.99 419.69-38.99L419.69-38.99Q420.2-37.72 420.2-36.21L420.2-36.21ZM519.25-5.64L528.89-35.25Q530.26-35.16 530.75-34.69L530.75-34.69 538.81-9.2Q539.56-6.74 539.66-5.2L539.66-5.2 539.95-5.2 548.06-32.59Q548.21-33.52 547.24-33.89 546.28-34.25 544.15-34.06L544.15-34.06 544.01-34.5Q547.16-35.4 550.5-35.4L550.5-35.4Q550.67-35.4 550.76-35.24 550.84-35.08 550.79-34.91L550.79-34.91Q548.84-28 539.71 0.49L539.71 0.49 538 0 529.04-28.44 529.04-28.34 528.75-28.34 519.59 0.49 517.91 0 508.7-29.81Q508.19-31.47 507.42-32.23 506.65-32.98 505.76-32.98 504.87-32.98 504.2-32.92 503.53-32.86 503.41-32.86L503.41-32.86 503.16-33.35Q507.26-35.4 510.51-35.4L510.51-35.4 518.01-11.01Q518.88-8.03 518.96-5.64L518.96-5.64 519.25-5.64ZM585.3-11.89L585.3-11.89Q585.3-14.48 586.16-16.91 587.01-19.34 588.6-21.23 590.19-23.12 592.44-24.26 594.7-25.39 597.51-25.39L597.51-25.39Q599.27-25.39 600.83-24.79 602.39-24.19 603.55-22.94 604.71-21.68 605.38-19.71 606.05-17.75 606.05-15.04L606.05-15.04 605.1-14.16 589.16-14.16Q589.11-13.75 589.11-13.35 589.11-12.96 589.11-12.57L589.11-12.57Q589.11-9.91 589.73-7.74 590.36-5.57 591.42-4.02 592.48-2.47 593.92-1.61 595.36-0.76 596.97-0.76L596.97-0.76Q598-0.76 599.06-0.92 600.12-1.07 601.14-1.42 602.15-1.76 603.1-2.29 604.05-2.83 604.86-3.59L604.86-3.59 605.86-2.54Q603.93-0.63 601.66 0.18 599.39 1 596.41 1L596.41 1Q594.07 1 592.03 0.1 589.99-0.81 588.5-2.49 587.01-4.17 586.16-6.56 585.3-8.94 585.3-11.89ZM596.97-23.71L596.97-23.71Q593.19-23.71 591.43-21.74 589.67-19.78 589.31-16.09L589.31-16.09 602.91-16.09Q602.71-20.09 601.11-21.9 599.51-23.71 596.97-23.71ZM650.04-36.21L650.04-21.19Q652.18-23.39 654.36-24.39 656.53-25.39 659.14-25.39L659.14-25.39Q661.34-25.39 663.18-24.38 665.03-23.36 666.22-21.7 667.42-20.04 668.08-17.96 668.74-15.87 668.74-13.65L668.74-13.65Q668.74-7.1 665.28-3.31 661.83 0.49 655.29 0.49L655.29 0.49Q652.67 0.49 650.18 0.05L650.18 0.05 650.13 0.05Q647.72 0.05 646.23 0.56L646.23 0.56 646.03 0.15Q646.35-0.32 646.44-0.89 646.52-1.46 646.52-2.95L646.52-2.95 646.52-31.69Q646.52-34.91 645.83-36.13 645.13-37.35 642.93-37.35L642.93-37.35 642.22-37.35 642.13-37.79Q646.15-38.99 649.52-38.99L649.52-38.99Q650.04-37.72 650.04-36.21L650.04-36.21ZM650.04-19.24L650.04-19.24 650.04-2.81Q651.21-2.17 653.15-1.76 655.09-1.34 657.04-1.34L657.04-1.34Q658.95-1.34 660.35-1.87 661.76-2.39 662.61-3.28 663.46-4.17 663.99-5.62 664.51-7.06 664.7-8.64 664.88-10.23 664.88-12.35L664.88-12.35Q664.88-17.92 663-20.79 661.12-23.66 658.02-23.66L658.02-23.66Q656.09-23.66 654-22.52 651.92-21.39 650.04-19.24ZM722.85-5.69L722.85-5.69Q722.85-3.93 722.14-2.66 721.44-1.39 720.25-0.57 719.07 0.24 717.49 0.62 715.92 1 714.18 1L714.18 1Q709.99 1 706.3-0.76L706.3-0.76Q706.76-2.37 707.23-3.75 707.69-5.13 708.18-6.3L708.18-6.3 708.89-6.05Q708.67-4.98 708.67-3.99 708.67-3 708.74-2.2L708.74-2.2Q709.5-1.81 710.16-1.53 710.82-1.25 711.47-1.06 712.13-0.88 712.89-0.79 713.65-0.71 714.65-0.71L714.65-0.71Q716.14-0.71 717.11-0.9 718.09-1.1 718.64-1.57 719.19-2.05 719.41-2.84 719.63-3.64 719.63-4.81L719.63-4.81Q719.63-5.71 719.32-6.51 719.02-7.3 718.27-8.08 717.53-8.86 716.3-9.7 715.06-10.55 713.23-11.55L713.23-11.55Q710.28-13.31 708.76-15.05 707.25-16.8 707.25-18.8L707.25-18.8Q707.25-20.39 707.91-21.62 708.57-22.85 709.7-23.69 710.84-24.54 712.35-24.96 713.87-25.39 715.55-25.39L715.55-25.39Q716.41-25.39 717.35-25.27 718.29-25.15 719.16-24.91 720.04-24.68 720.81-24.35 721.58-24.02 722.14-23.61L722.14-23.61Q721.36-20.41 720.24-17.99L720.24-17.99 719.53-18.26Q719.58-18.97 719.6-20.01 719.63-21.04 719.63-22.46L719.63-22.46Q718.04-23.71 715.23-23.71L715.23-23.71Q713.84-23.71 712.88-23.54 711.91-23.36 711.33-22.95 710.74-22.53 710.49-21.81 710.23-21.09 710.23-20L710.23-20Q710.23-19.19 710.45-18.49 710.67-17.8 711.23-17.13 711.79-16.46 712.76-15.76 713.72-15.06 715.23-14.26L715.23-14.26Q717.6-12.96 719.08-11.99 720.56-11.01 721.4-10.07 722.24-9.13 722.55-8.11 722.85-7.08 722.85-5.69ZM763.54-2.44L763.54-18.09Q763.54-21.56 762.72-22.74 761.9-23.93 759.24-23.75L759.24-23.75 759.14-24.19Q763.17-25.39 766.54-25.39L766.54-25.39Q767.05-24.12 767.05-22.61L767.05-22.61 767.05-4.39Q767.05-2.47 767.96-1.54 768.86-0.61 771.15-0.2L771.15-0.2 770.96 0.39Q768.15 0 766.63 0 765.1 0 763.2 0.39L763.2 0.39 763.05 0.15Q763.54-0.56 763.54-2.44L763.54-2.44ZM761.05-34.45L761.05-34.45Q763.37-35.79 766.3-36.69L766.3-36.69Q766.3-34.67 766.96-32.69L766.96-32.69 766.64-32.25Q764.32-32.1 761.8-30.96L761.8-30.96Q761.19-32.64 761.05-34.45ZM814.11-22.61L814.11-6.74Q814.11-3.42 814.84-2.16 815.58-0.9 817.21-0.9L817.21-0.9Q818.99-0.9 821.56-2.25L821.56-2.25 822.31-1.2Q818.29 1 815.72 1L815.72 1Q814.36 1 813.5 0.76 812.65 0.51 811.94-0.2 811.23-0.9 810.93-2.28 810.62-3.66 810.62-5.86L810.62-5.86 810.62-22.41 806.96-22.19 806.96-23.75Q808.89-24.17 810.62-24.29L810.62-24.29 810.62-27.76Q812.7-28.93 814.01-31.1L814.01-31.1 814.77-30.81Q814.36-29.83 814.23-28.6 814.11-27.37 814.11-24.44L814.11-24.44 822.51-24.44 822.51-23.58Q821.48-23.17 820.43-22.89 819.38-22.61 818.26-22.61L818.26-22.61 814.11-22.61ZM858.56-11.89L858.56-11.89Q858.56-14.48 859.41-16.91 860.27-19.34 861.85-21.23 863.44-23.12 865.7-24.26 867.96-25.39 870.76-25.39L870.76-25.39Q872.52-25.39 874.08-24.79 875.65-24.19 876.81-22.94 877.97-21.68 878.64-19.71 879.31-17.75 879.31-15.04L879.31-15.04 878.36-14.16 862.41-14.16Q862.37-13.75 862.37-13.35 862.37-12.96 862.37-12.57L862.37-12.57Q862.37-9.91 862.99-7.74 863.61-5.57 864.67-4.02 865.73-2.47 867.18-1.61 868.62-0.76 870.23-0.76L870.23-0.76Q871.25-0.76 872.31-0.92 873.38-1.07 874.39-1.42 875.4-1.76 876.35-2.29 877.31-2.83 878.11-3.59L878.11-3.59 879.11-2.54Q877.18-0.63 874.91 0.18 872.64 1 869.67 1L869.67 1Q867.32 1 865.28 0.1 863.24-0.81 861.76-2.49 860.27-4.17 859.41-6.56 858.56-8.94 858.56-11.89ZM870.23-23.71L870.23-23.71Q866.44-23.71 864.68-21.74 862.93-19.78 862.56-16.09L862.56-16.09 876.16-16.09Q875.96-20.09 874.37-21.9 872.77-23.71 870.23-23.71Z" opacity="1" transform="matrix(1,0,0,1,0,0)" fill="#cdd8e3" class="undefined-text-1" data-fill-palette-color="secondary" id="text-1"></path></svg></g></svg></g></svg></g></svg></g><g transform="matrix(1,0,0,1,153.3204898821671,0)"><svg viewBox="0 0 90.85662023566573 74.85739483304727" height="74.85739483304727" width="90.85662023566573"><g><svg xmlns="http://www.w3.org/2000/svg" xmlns:xlink="http://www.w3.org/1999/xlink" version="1.1" x="8" y="0" viewBox="2.1510000228881836 2.1500015258789062 95.84900665283203 95.8499984741211" enable-background="new 0 0 100 100" xml:space="preserve" height="74.85739483304727" width="74.85662023566573" class="icon-icon-0" data-fill-palette-color="accent" id="icon-0"><g fill="#cdd8e3" data-fill-palette-color="accent"><path fill="#cdd8e3" d="M98 50.075C98 76.543 76.542 98 50.075 98 23.606 98 2.151 76.543 2.151 50.075c0-26.468 21.456-47.925 47.924-47.925C76.542 2.15 98 23.607 98 50.075zM49.797 6.185c-24.373 0-44.133 19.758-44.133 44.131 0 24.375 19.76 44.133 44.133 44.133S93.93 74.691 93.93 50.316C93.93 25.943 74.17 6.185 49.797 6.185z" data-fill-palette-color="accent"></path><path fill="#cdd8e3" d="M90.862 50.438c0 22.613-18.331 40.945-40.944 40.945-22.614 0-40.945-18.332-40.945-40.945 0-22.614 18.332-40.945 40.945-40.945C72.531 9.493 90.862 27.825 90.862 50.438zM21.963 34.746l-8.713 3.712 4.68 8.552-6.778 7.423 8.068 5.97-3.066 9.198 9.681 2.258 1.131 9.683 9.843-1.776 4.679 8.231 8.229-5.811 8.067 5.811 4.843-8.393 9.681 2.259 1.131-10.329 9.844-1.771-3.067-9.521 8.067-5.809-6.454-7.262 4.519-8.875-9.037-3.873 1.129-9.843-10.166-0.162-2.904-9.52-9.197 3.872-6.454-7.1-6.454 7.262-9.197-4.034-3.228 9.52-9.843-0.323L21.963 34.746z" data-fill-palette-color="accent"></path><path fill="#cdd8e3" d="M76.019 60.886l2.098 5.809-6.132 1.13-10.166-7.906-1.291 1.452 8.876 9.519-0.322 5.973-5.971-1.454L57.001 63.82c-0.675 0.37-1.38 0.693-2.111 0.963l4.671 12.562-3.229 4.841-4.355-3.389-1.265-13.12c-0.382 0.031-0.769 0.05-1.156 0.05s-0.77-0.019-1.15-0.047l-0.624 13.278-4.841 3.551-3.066-5.002 4.348-12.723c-0.708-0.261-1.391-0.568-2.047-0.924l-5.852 11.547-5.809 1.292-0.646-5.486 8.913-9.851c-0.566-0.549-1.092-1.14-1.57-1.769l-10.085 8.068-5.809-0.967 1.613-5.648 12.263-5.002h0.001c-0.312-0.77-0.563-1.569-0.748-2.394l-12.646 3.2-4.518-3.388 3.549-4.035h13.253c0.032-0.624 0.105-1.24 0.209-1.843l-0.068-0.092-13.071-2.905-2.42-4.357 5.325-2.582 11.664 5.611c0.264-0.522 0.555-1.027 0.875-1.514L26.158 34.1l-0.484-5.647h5.809l7.906 9.521c0 0 0.21 0.074 0.498 0.165 0.478-0.383 0.978-0.738 1.5-1.063-0.114-0.391-0.222-0.717-0.222-0.717L34.71 26.354l1.453-5.809 5.325 2.098 4.246 12.578c0.531-0.134 1.073-0.24 1.625-0.317l-1.354-13.067 3.712-4.034 3.712 3.872L52.007 34.94c0.646 0.103 1.274 0.246 1.891 0.426l3.565-12.401 5.486-2.743 1.937 5.971-6.779 10.488 1.776 1.614 8.23-9.682h5.81L73.438 34.1l-10.489 7.261 0.161 1.292c0 0-0.006 0.022-0.016 0.058 0.146 0.264 0.288 0.532 0.423 0.805 1.75-0.791 11.856-5.704 11.856-5.704l5.325 2.582c0 0-1.936 4.68-2.42 4.68-0.426 0-10.897 1.985-13.471 2.474 0.126 0.717 0.203 1.451 0.227 2.198l13.403-0.154 3.712 4.197-4.681 3.387-12.85-3.331c-0.186 0.776-0.428 1.532-0.727 2.256L76.019 60.886zM49.879 38.618c-1.157 0-2.098 0.94-2.098 2.098 0 1.159 0.94 2.099 2.098 2.099s2.098-0.939 2.098-2.099C51.977 39.558 51.036 38.618 49.879 38.618zM56.494 41.361c-1.158 0-2.097 0.94-2.097 2.098 0 1.159 0.938 2.099 2.097 2.099 1.159 0 2.099-0.94 2.099-2.099C58.593 42.301 57.653 41.361 56.494 41.361zM59.399 48.138c-1.158 0-2.097 0.941-2.097 2.098 0 1.158 0.938 2.097 2.097 2.097 1.159 0 2.099-0.938 2.099-2.097C61.498 49.079 60.559 48.138 59.399 48.138zM56.655 54.916c-1.157 0-2.098 0.939-2.098 2.097 0 1.16 0.94 2.097 2.098 2.097 1.159 0 2.099-0.938 2.099-2.097C58.754 55.855 57.814 54.916 56.655 54.916zM49.879 57.98c-1.157 0-2.098 0.941-2.098 2.1 0 1.157 0.94 2.097 2.098 2.097s2.098-0.939 2.098-2.097C51.977 58.922 51.036 57.98 49.879 57.98zM43.263 54.916c-1.159 0-2.097 0.939-2.097 2.097 0 1.16 0.938 2.097 2.097 2.097 1.159 0 2.098-0.937 2.098-2.097C45.361 55.855 44.422 54.916 43.263 54.916zM40.197 48.138c-1.159 0-2.097 0.941-2.097 2.098 0 1.158 0.938 2.097 2.097 2.097 1.159 0 2.098-0.938 2.098-2.097C42.295 49.079 41.356 48.138 40.197 48.138zM42.779 41.361c-1.159 0-2.097 0.94-2.097 2.098 0 1.159 0.938 2.099 2.097 2.099s2.097-0.94 2.097-2.099C44.876 42.301 43.938 41.361 42.779 41.361zM49.717 47.494c-1.516 0-2.742 1.227-2.742 2.743 0 1.515 1.227 2.741 2.742 2.741s2.742-1.227 2.742-2.741C52.459 48.721 51.232 47.494 49.717 47.494z" data-fill-palette-color="accent"></path></g></svg></g></svg></g><g><rect width="76.78736988216711" height="2.6345978585018184" y="71.22279697454545" x="244.17711011783283" fill="#cdd8e3" data-fill-palette-color="secondary"></rect><rect width="76.78736988216711" height="2.6345978585018184" y="71.22279697454545" x="76.53311999999998" fill="#cdd8e3" data-fill-palette-color="secondary"></rect></g></svg></g><defs></defs></svg><rect width="395.5199999999999" height="144.72804610466216" fill="none" stroke="none" visibility="hidden"></rect></g></svg></g></svg>